<?xml version="1.0" encoding="UTF-8" standalone="no"?>
<svg
   version="1.1"
   width="512"
   height="512"
   x="0"
   y="0"
   viewBox="0 0 487 487.71902"
   xml:space="preserve"
   class=""
   id="svg54"
   sodipodi:docname="save-money-icon.svg"
   style="enable-background:new 0 0 512 512"
   inkscape:version="1.2 (dc2aedaf03, 2022-05-15)"
   xmlns:inkscape="http://www.inkscape.org/namespaces/inkscape"
   xmlns:sodipodi="http://sodipodi.sourceforge.net/DTD/sodipodi-0.dtd"
   xmlns:xlink="http://www.w3.org/1999/xlink"
   xmlns="http://www.w3.org/2000/svg"
   xmlns:svg="http://www.w3.org/2000/svg"><defs
   id="defs58"><linearGradient
     inkscape:collect="always"
     xlink:href="#a"
     id="linearGradient258"
     gradientUnits="userSpaceOnUse"
     x1="220.203536"
     y1="14.768"
     x2="220.203536"
     y2="474.363" /><linearGradient
     inkscape:collect="always"
     xlink:href="#a"
     id="linearGradient260"
     gradientUnits="userSpaceOnUse"
     x1="220.203536"
     y1="14.768"
     x2="220.203536"
     y2="474.363" /></defs><sodipodi:namedview
   id="namedview56"
   pagecolor="#ffffff"
   bordercolor="#111111"
   borderopacity="1"
   inkscape:showpageshadow="0"
   inkscape:pageopacity="0"
   inkscape:pagecheckerboard="1"
   inkscape:deskcolor="#d1d1d1"
   showgrid="false"
   inkscape:zoom="1.1449053"
   inkscape:cx="375.57691"
   inkscape:cy="249.80232"
   inkscape:window-width="2560"
   inkscape:window-height="1009"
   inkscape:window-x="-8"
   inkscape:window-y="-8"
   inkscape:window-maximized="1"
   inkscape:current-layer="g52" />
    <g
   id="g52">
        <linearGradient
   id="a">
            <stop
   offset="0"
   stop-color="#00efd1"
   id="stop31" />
            <stop
   offset="1"
   stop-color="#00acea"
   id="stop33" />
        </linearGradient>
        <linearGradient
   id="b"
   gradientUnits="userSpaceOnUse"
   x1="220.203536"
   x2="220.203536"
   xlink:href="#a"
   y1="14.768"
   y2="474.363" />
        <linearGradient
   id="c"
   gradientUnits="userSpaceOnUse"
   x1="215.203536"
   x2="215.203536"
   xlink:href="#a"
   y1="14.768"
   y2="474.363" />
        <linearGradient
   id="d"
   gradientUnits="userSpaceOnUse"
   x1="280.203536"
   x2="280.203536"
   xlink:href="#a"
   y1="14.768"
   y2="474.363" />
        <linearGradient
   id="e"
   gradientUnits="userSpaceOnUse"
   x1="160.203536"
   x2="160.203536"
   xlink:href="#a"
   y1="14.768"
   y2="474.363" />
        
        
        
        
        
        <g
   id="g232"
   transform="translate(28.294162,1.2735598e-4)"><path
     d="m 220.86719,266.17578 c -0.90235,-0.19531 -1.82813,-0.23047 -2.74219,-0.0937 -9.16016,-1.06641 -16.07031,-8.81641 -16.08594,-18.03516 0,-4.41796 -3.58203,-8 -8,-8 -4.41797,0 -8,3.58204 -8,8 0.0234,15.39454 10.32031,28.87891 25.16406,32.95313 v 8 c 0,4.41797 3.58204,8 8,8 4.41797,0 8,-3.58203 8,-8 v -7.51563 c 17.13282,-3.58593 28.77735,-19.54296 26.97657,-36.95312 -1.80469,-17.41016 -16.47266,-30.64063 -33.97657,-30.64453 -10.03125,0 -18.16406,-8.13281 -18.16406,-18.16406 0,-10.03125 8.13281,-18.16407 18.16406,-18.16407 10.03125,0 18.16407,8.13282 18.16407,18.16407 0,4.41796 3.58203,8 8,8 4.41797,0 8,-3.58204 8,-8 -0.0234,-16.16407 -11.34766,-30.10547 -27.16407,-33.44141 V 155 c 0,-4.41797 -3.58203,-8 -8,-8 -4.41796,0 -8,3.58203 -8,8 v 7.76953 c -16.50781,4.50781 -27.13281,20.53516 -24.85937,37.49609 2.27344,16.96094 16.74609,29.6211 33.85937,29.61719 9.89844,0 17.97266,7.92578 18.15235,17.82031 0.18359,9.89454 -7.59766,18.11329 -17.48828,18.47266 z m 0,0"
     fill="url(#b)"
     data-original="url(#b)"
     id="path40"
     style="fill:url(#linearGradient258)" /><path
     d="m 220.20312,338.50781 c 64.07032,0 116.00782,-51.9375 116.00782,-116.00781 0,-64.07031 -51.9375,-116.00781 -116.00782,-116.00781 -64.07031,0 -116.00781,51.9375 -116.00781,116.00781 0.0742,64.03906 51.96875,115.9375 116.00781,116.00781 z m 0,-216.01562 c 55.23438,0 100.00782,44.77343 100.00782,100.00781 0,55.23437 -44.77344,100.00781 -100.00782,100.00781 -55.23437,0 -100.00781,-44.77344 -100.00781,-100.00781 0.0625,-55.20703 44.80078,-99.94531 100.00781,-100.00781 z m 0,0"
     fill="url(#b)"
     data-original="url(#b)"
     id="path42"
     style="fill:url(#linearGradient260)" /><path
     d="m 375.64844,358.23047 -62.66797,29.60937 c -8.65235,-16.09375 -25.25,-26.33593 -43.51563,-26.85156 l -57.85156,-1.58984 c -9.16016,-0.26172 -18.14844,-2.58203 -26.29297,-6.78906 l -5.88672,-3.05079 c -30.14062,-15.71093 -66.0664,-15.67187 -96.175778,0.10157 L 83.625,336.32422 c 0.121094,-4.41797 -3.359375,-8.09766 -7.777344,-8.21875 l -63.4375,-1.74609 c -4.417968,-0.1211 -8.09375,3.35937 -8.214844,7.77734 L 0.363281,473.34766 c -0.121093,4.41797 3.359375,8.09765 7.777344,8.21875 l 63.4375,1.74609 h 0.21875 c 4.335937,0 7.882813,-3.44922 8,-7.78125 l 0.183594,-6.66016 16.480469,-8.82421 c 6.468752,-3.48047 14.031252,-4.3086 21.097652,-2.3086 l 98.41407,27.6211 c 0.17187,0.0508 0.34375,0.0898 0.51953,0.1289 7.11328,1.48828 14.36328,2.23438 21.6289,2.23047 15.39063,0.008 30.60157,-3.30859 44.58985,-9.73047 0.34375,-0.15625 0.67578,-0.33984 0.99218,-0.54687 l 142.69141,-92.29688 c 3.55469,-2.30078 4.70313,-6.96875 2.62109,-10.65625 -10.59375,-18.79687 -34.08984,-25.95703 -53.36718,-16.25781 z m -359.070315,107.5625 3.390625,-123.21875 47.441406,1.30469 -3.390625,123.22265 z m 258.925785,-2.09375 c -17.37891,7.84375 -36.78907,10.00781 -55.46875,6.1914 l -98.14844,-27.55078 c -11.04688,-3.12109 -22.871095,-1.82812 -32.976564,3.60547 l -8.421875,4.51172 2.253907,-81.92578 c 26.687502,-17.75 60.914062,-19.57422 89.335932,-4.76563 l 5.88672,3.05079 c 10.28907,5.3125 21.63672,8.24218 33.21094,8.57812 l 57.85547,1.58984 c 16.25,0.46875 30.05078,12.03907 33.34766,27.96094 l -86.17578,-2.3789 c -4.41797,-0.1211 -8.09375,3.36328 -8.21875,7.77734 -0.1211,4.41797 3.36328,8.09766 7.77734,8.21875 l 95.10156,2.61719 h 0.22266 c 4.33203,-0.004 7.875,-3.45313 7.99219,-7.78125 0.0976,-3.47656 -0.16016,-6.95703 -0.77344,-10.37891 l 64.27734,-30.37109 c 0.0625,-0.0274 0.125,-0.0586 0.1875,-0.0899 9.11719,-4.61328 20.14063,-3.07031 27.64063,3.8711 z m 0,0"
     fill="url(#c)"
     data-original="url(#c)"
     id="path44"
     style="fill:url(#c)" /><path
     d="m 220.20312,92 c 4.41797,0 8,-3.582031 8,-8 V 8 c 0,-4.417969 -3.58203,-8 -8,-8 -4.41796,0 -8,3.582031 -8,8 v 76 c 0,4.417969 3.58204,8 8,8 z m 0,0"
     fill="url(#b)"
     data-original="url(#b)"
     id="path46"
     style="fill:url(#b)" /><path
     d="m 280.20312,92 c 4.41797,0 8,-3.582031 8,-8 V 48 c 0,-4.417969 -3.58203,-8 -8,-8 -4.41796,0 -8,3.582031 -8,8 v 36 c 0,4.417969 3.58204,8 8,8 z m 0,0"
     fill="url(#d)"
     data-original="url(#d)"
     class=""
     id="path48"
     style="fill:url(#d)" /><path
     d="m 160.20312,92 c 4.41797,0 8,-3.582031 8,-8 V 48 c 0,-4.417969 -3.58203,-8 -8,-8 -4.41796,0 -8,3.582031 -8,8 v 36 c 0,4.417969 3.58204,8 8,8 z m 0,0"
     fill="url(#e)"
     data-original="url(#e)"
     id="path50"
     style="fill:url(#e)" /></g>
    </g>
</svg>
