<?xml version="1.0" encoding="UTF-8" standalone="no"?>
<svg
   xmlns:dc="http://purl.org/dc/elements/1.1/"
   xmlns:cc="http://creativecommons.org/ns#"
   xmlns:rdf="http://www.w3.org/1999/02/22-rdf-syntax-ns#"
   xmlns:svg="http://www.w3.org/2000/svg"
   xmlns="http://www.w3.org/2000/svg"
   xmlns:sodipodi="http://sodipodi.sourceforge.net/DTD/sodipodi-0.dtd"
   xmlns:inkscape="http://www.inkscape.org/namespaces/inkscape"
   version="1.1"
   id="svg2"
   xml:space="preserve"
   width="697.03998"
   height="462.58667"
   viewBox="0 0 697.03998 462.58667"
   sodipodi:docname="2202_w037_n003_199b_p1_199.eps"><metadata
     id="metadata8"><rdf:RDF><cc:Work
         rdf:about=""><dc:format>image/svg+xml</dc:format><dc:type
           rdf:resource="http://purl.org/dc/dcmitype/StillImage" /></cc:Work></rdf:RDF></metadata><defs
     id="defs6" /><sodipodi:namedview
     pagecolor="#ffffff"
     bordercolor="#666666"
     borderopacity="1"
     objecttolerance="10"
     gridtolerance="10"
     guidetolerance="10"
     inkscape:pageopacity="0"
     inkscape:pageshadow="2"
     inkscape:window-width="640"
     inkscape:window-height="480"
     id="namedview4" /><g
     id="g10"
     inkscape:groupmode="layer"
     inkscape:label="ink_ext_XXXXXX"
     transform="matrix(1.3333333,0,0,-1.3333333,0,462.58667)"><g
       id="g12"
       transform="scale(0.1)"><path
         d="m 5103.73,762.16 c 0,-45.73 -1140.01,-82.808 -2546.27,-82.808 -1406.26,0 -2546.2647,37.078 -2546.2647,82.808 0,45.75 1140.0047,82.82 2546.2647,82.82 1406.26,0 2546.27,-37.07 2546.27,-82.82"
         style="fill:#eeecf1;fill-opacity:1;fill-rule:nonzero;stroke:none"
         id="path14" /><path
         d="M 3976.72,1239.01 H 985.426 c -111.356,0 -201.629,90.26 -201.629,201.62 v 1177.61 c 0,111.35 90.273,201.63 201.629,201.63 H 3976.72 c 111.36,0 201.63,-90.28 201.63,-201.63 V 1440.63 c 0,-111.36 -90.27,-201.62 -201.63,-201.62"
         style="fill:#eeecf1;fill-opacity:1;fill-rule:nonzero;stroke:none"
         id="path16" /><path
         d="m 4223.75,1350.98 v -74.58 c 0,-19.58 -3.1,-38.64 -9.07,-56.86 -30.3,-92.28 -132.31,-160.22 -253.7,-160.22 H 1001.27 c -121.391,0 -223.614,67.94 -253.907,160.22 -5.976,18.22 -9.066,37.28 -9.066,56.86 v 74.58 c 0,119.87 117.676,217.08 262.973,217.08 h 2959.71 c 145.09,0 262.77,-97.21 262.77,-217.08"
         style="fill:#ddd7e0;fill-opacity:1;fill-rule:nonzero;stroke:none"
         id="path18" /><path
         d="m 1150.45,795.879 h -11.12 c -27.34,0 -50.46,20.223 -54.11,47.312 l -38.81,288.029 h 171 l -12.42,-283.138 c -1.27,-29.191 -25.32,-52.203 -54.54,-52.203"
         style="fill:#bbafc0;fill-opacity:1;fill-rule:nonzero;stroke:none"
         id="path20" /><path
         d="m 3812.7,795.879 h 11.14 c 27.33,0 50.45,20.223 54.1,47.312 l 38.81,288.029 h -171 l 12.41,-283.138 c 1.28,-29.191 25.33,-52.203 54.54,-52.203"
         style="fill:#bbafc0;fill-opacity:1;fill-rule:nonzero;stroke:none"
         id="path22" /><path
         d="m 2257.86,2737.56 h -506.28 c -2.35,0 -4.26,1.91 -4.26,4.26 0,2.34 1.91,4.25 4.26,4.25 h 506.28 c 2.35,0 4.26,-1.91 4.26,-4.25 0,-2.35 -1.91,-4.26 -4.26,-4.26"
         style="fill:#ffffff;fill-opacity:1;fill-rule:nonzero;stroke:none"
         id="path24" /><path
         d="m 4211.48,1219.54 c -30.23,-92.28 -132.07,-160.22 -253.23,-160.22 H 1004 c -121.168,0 -223.199,67.94 -253.445,160.22 H 4211.48"
         style="fill:#bbafc0;fill-opacity:1;fill-rule:nonzero;stroke:none"
         id="path26" /><path
         d="m 4117.88,1497.96 c 0,-47.96 -240.46,-100.51 -537.07,-100.51 -296.61,0 -537.06,52.55 -537.06,100.51 0,47.96 240.45,86.85 537.06,86.85 296.61,0 537.07,-38.89 537.07,-86.85"
         style="fill:#bbafc0;fill-opacity:1;fill-rule:nonzero;stroke:none"
         id="path28" /><path
         d="m 1923.5,1417.47 c 0,-47.96 -240.45,-86.85 -537.07,-86.85 -296.61,0 -537.055,38.89 -537.055,86.85 0,47.96 240.445,86.85 537.055,86.85 296.62,0 537.07,-38.89 537.07,-86.85"
         style="fill:#bbafc0;fill-opacity:1;fill-rule:nonzero;stroke:none"
         id="path30" /><path
         d="m 2683.45,679.738 c 0,0 -101.39,-115.156 -78.36,-124.668 23.02,-9.5 217.95,19.461 213.01,40.321 -4.94,20.871 -111.29,85.949 -134.65,84.347"
         style="fill:#ffffff;fill-opacity:1;fill-rule:nonzero;stroke:none"
         id="path32" /><path
         d="m 2818.07,1971.11 c 0,0 208.71,-75.18 385.77,-37.97 182.77,38.42 264.43,153.64 264.43,153.64 l -29.69,388.45 c 0,0 -250,-140.88 -359.71,-210.51 -89.08,-56.54 -207.32,-131.37 -207.32,-131.37 l -53.48,-162.24"
         style="fill:#f7b369;fill-opacity:1;fill-rule:nonzero;stroke:none"
         id="path34" /><path
         d="m 2976.43,791.738 -55.64,-266.84 -281.78,58.762 45.76,251.32 291.66,-43.242"
         style="fill:#f48462;fill-opacity:1;fill-rule:nonzero;stroke:none"
         id="path36" /><path
         d="m 2889.82,326.379 c 19.89,-0.231 36.45,15.18 37.66,35.101 4.78,78.711 25.76,254.54 10.47,255.45 -19.5,1.152 -218.38,-37.41 -218.38,-37.41 0,0 1.02,109.39 -80.99,94.609 -62.91,-11.34 -138.96,-76.438 -170.94,-106.129 -10.16,-9.41 -22.69,-15.648 -36.31,-18 -58.59,-10.129 -220.19,-45.219 -227.31,-125.148 -8.7,-97.723 33.78,-89 53.29,-90.161 16.74,-0.992 496.87,-6.711 632.51,-8.312"
         style="fill:#5c69a5;fill-opacity:1;fill-rule:nonzero;stroke:none"
         id="path38" /><path
         d="M 3510.46,1132.9 3642.17,839.82 3364.68,715.102 3235.01,986.871 3510.46,1132.9"
         style="fill:#f48462;fill-opacity:1;fill-rule:nonzero;stroke:none"
         id="path40" /><path
         d="m 3711.7,664.332 c 17.03,10.27 23.01,32.09 13.54,49.656 -37.37,69.442 -112.09,229.992 -125.56,222.703 -17.2,-9.269 -165.99,-146.75 -165.99,-146.75 0,0 -56.72,93.539 -118.65,37.809 -47.53,-42.77 -77.92,-138.148 -89.48,-180.23 -3.68,-13.34 -11.06,-25.25 -21.4,-34.418 -44.48,-39.454 -163.41,-154.352 -127.38,-226.051 44.04,-87.672 75.57,-57.903 92.76,-48.621 14.77,7.968 425.99,255.859 542.16,325.902"
         style="fill:#5c69a5;fill-opacity:1;fill-rule:nonzero;stroke:none"
         id="path42" /><path
         d="m 3204.16,608.531 c -1.55,0 -3.07,0.789 -3.93,2.231 -1.3,2.168 -0.58,4.968 1.59,6.269 l 96.38,57.551 c 2.14,1.289 4.97,0.59 6.27,-1.594 1.3,-2.156 0.59,-4.968 -1.58,-6.269 L 3206.5,609.18 c -0.73,-0.442 -1.54,-0.649 -2.34,-0.649"
         style="fill:#f7b369;fill-opacity:1;fill-rule:nonzero;stroke:none"
         id="path44" /><path
         d="m 3318.59,1596.6 313.89,-597.651 -464.33,-223.429 -189.43,361.58 131.66,441.98 208.21,17.52"
         style="fill:#92b4ea;fill-opacity:1;fill-rule:nonzero;stroke:none"
         id="path46" /><path
         d="m 3895.67,1825.05 c 0,0 7.37,-326.48 -89.01,-359.39 -100.15,-34.19 -555,-65.77 -583.56,-89.2 -28.57,-23.44 -220.27,-674.858 -220.27,-674.858 l -521.46,48.707 c 0,0 197.82,825.071 345.35,940.851 143.02,112.24 606.36,133.89 606.36,133.89 h 462.59"
         style="fill:#92b4ea;fill-opacity:1;fill-rule:nonzero;stroke:none"
         id="path48" /><path
         d="m 3100.9,1021.3 c -0.42,0 -0.86,0.06 -1.29,0.19 -2.42,0.71 -3.81,3.25 -3.1,5.67 3.41,11.61 83.77,284.78 104.73,309.8 20.96,25.01 179.6,62.78 197.62,67.01 2.49,0.58 4.91,-0.95 5.49,-3.41 0.58,-2.46 -0.94,-4.92 -3.4,-5.5 -48.15,-11.29 -176.61,-44.78 -192.7,-63.98 -16.39,-19.55 -79.88,-227.87 -102.97,-306.49 -0.58,-2 -2.4,-3.29 -4.38,-3.29"
         style="fill:#f7b369;fill-opacity:1;fill-rule:nonzero;stroke:none"
         id="path50" /><path
         d="m 3132.07,1445.59 c -2.11,0 -4.91,-0.87 -8.13,-4.92 -3.81,-4.84 -5.1,-10.34 -3.93,-16.82 5.1,-28.24 53.15,-63.42 75.62,-78.5 -16.16,41.58 -43.56,97.07 -62.12,100.12 -0.43,0.07 -0.91,0.12 -1.44,0.12 z m 72.68,-116.14 c -0.82,0 -1.65,0.21 -2.38,0.66 -3.42,2.07 -83.98,51.28 -91.36,92.12 -1.65,9.07 0.3,17.19 5.77,24.1 6.43,8.15 13.45,8.92 18.21,8.17 32.62,-5.36 69.91,-107.34 74.06,-118.95 0.66,-1.81 0.09,-3.85 -1.41,-5.08 -0.84,-0.68 -1.87,-1.02 -2.89,-1.02"
         style="fill:#f7b369;fill-opacity:1;fill-rule:nonzero;stroke:none"
         id="path52" /><path
         d="m 3485.7,2714.41 c 0,0 -28.25,62.3 -22.94,89.61 5.32,27.29 52.12,117.21 196.52,76.39 107.66,-30.43 118.92,-176.75 96.76,-226.05 -57.06,-126.98 -172.32,-66.58 -172.32,-66.58 0,0 -184.09,56.01 -98.02,126.63"
         style="fill:#000000;fill-opacity:1;fill-rule:nonzero;stroke:none"
         id="path54" /><path
         d="m 3905.44,1807.12 c 0,0 -0.31,549.94 -32.79,587.14 -100.17,114.78 -340.53,153.3 -457.59,65.95 -73.26,-54.67 -62.45,-219.9 -59.04,-465.22 1.93,-138.05 7.34,-187.87 7.34,-187.87 h 542.08"
         style="fill:#f7b369;fill-opacity:1;fill-rule:nonzero;stroke:none"
         id="path56" /><path
         d="m 3503.32,2568.5 -0.13,-2.74 -0.48,-51.67 -0.52,-40.5 c 0,0 -3.97,-9.21 43.25,-8.7 63.29,0.95 85.07,26.94 85.07,26.94 l 7.78,94.6 -19.32,-2.62 -115.65,-15.31"
         style="fill:#f48462;fill-opacity:1;fill-rule:nonzero;stroke:none"
         id="path58" /><path
         d="m 3503.19,2565.76 -0.48,-51.67 c 30.84,2.08 87.33,12.35 112.45,59.33 1.94,3.83 3.28,7.29 3.8,10.2 l -115.54,-17.08 -0.23,-0.78"
         style="fill:#000000;fill-opacity:1;fill-rule:nonzero;stroke:none"
         id="path60" /><path
         d="m 3496.46,2813.55 c 0,0 -65.86,-131.07 -48.78,-207.6 17.08,-76.54 86.41,-68.37 128.3,-56 41.88,12.37 62.32,36.55 62.32,36.55 0,0 37.7,-15.08 65.29,19.24 27.6,34.32 14,76.17 -7.42,86.74 -21.41,10.58 -48.34,-3.84 -48.34,-3.84 l 22.53,37.9 c 0,0 -75.31,202.85 -173.9,87.01"
         style="fill:#f48462;fill-opacity:1;fill-rule:nonzero;stroke:none"
         id="path62" /><path
         d="m 3647.83,2688.64 c 0,0 -57.18,32.79 -76.39,75.99 -19.2,43.19 -19,64.39 -19,64.39 0,0 -9.88,-27.27 -31.55,-32.77 -21.67,-5.52 -34.99,-5.62 -34.99,-5.62 l -15.49,-38.7 8.75,74.64 c 0,0 59.36,28.22 67.1,27.86 7.75,-0.37 109.25,-3.77 114.62,-9.92 5.38,-6.15 32.63,-83.54 32.63,-83.54 l 0.51,-34.41 -46.19,-37.92"
         style="fill:#000000;fill-opacity:1;fill-rule:nonzero;stroke:none"
         id="path64" /><path
         d="m 3540.44,2460.69 c -28.59,0 -47.9,7.2 -49.43,7.79 -2.19,0.85 -3.29,3.3 -2.45,5.5 0.85,2.19 3.33,3.28 5.5,2.45 0.71,-0.27 70.06,-25.92 141.83,23.2 1.92,1.33 4.58,0.83 5.92,-1.11 1.32,-1.94 0.83,-4.58 -1.12,-5.91 -36.96,-25.31 -72.87,-31.92 -100.25,-31.92"
         style="fill:#ffffff;fill-opacity:1;fill-rule:nonzero;stroke:none"
         id="path66" /><path
         d="m 3356.02,1969.75 c -2.35,0 -4.25,1.91 -4.25,4.25 v 124.62 c -3.41,6.44 -20.54,41.62 -20.5,98.14 0.04,61.36 39.8,136.43 41.5,139.6 1.1,2.09 3.7,2.85 5.75,1.75 2.08,-1.11 2.87,-3.69 1.75,-5.77 -0.4,-0.75 -40.45,-76.37 -40.49,-135.59 -0.03,-59.01 19.74,-94.59 19.95,-94.94 0.36,-0.64 0.55,-1.37 0.55,-2.11 V 1974 c 0,-2.34 -1.9,-4.25 -4.26,-4.25"
         style="fill:#ffffff;fill-opacity:1;fill-rule:nonzero;stroke:none"
         id="path68" /><path
         d="m 3645.79,2623.57 c -1.12,0 -2.24,0.43 -3.08,1.31 -1.62,1.7 -1.56,4.39 0.14,6.02 l 42.38,40.53 c 1.69,1.62 4.39,1.57 6.02,-0.14 1.62,-1.7 1.56,-4.39 -0.14,-6.02 l -42.38,-40.52 c -0.82,-0.79 -1.88,-1.18 -2.94,-1.18"
         style="fill:#000000;fill-opacity:1;fill-rule:nonzero;stroke:none"
         id="path70" /><path
         d="m 3690.91,2633.18 c -0.45,0.02 -32.07,3.31 -32.07,3.31 -2.35,0.24 -4.04,2.33 -3.8,4.67 0.25,2.35 2.51,4.01 4.68,3.8 l 31.62,-3.3 c 2.34,-0.24 4.03,-2.33 3.8,-4.67 -0.24,-2.19 -2.08,-3.81 -4.23,-3.81"
         style="fill:#000000;fill-opacity:1;fill-rule:nonzero;stroke:none"
         id="path72" /><path
         d="m 3576.42,2750.78 c -0.19,0 -0.38,0.02 -0.57,0.04 l -33.25,4.37 c -2.33,0.3 -3.97,2.44 -3.67,4.77 0.32,2.33 2.4,3.92 4.78,3.67 l 33.25,-4.37 c 2.33,-0.3 3.97,-2.44 3.66,-4.77 -0.28,-2.15 -2.1,-3.71 -4.2,-3.71"
         style="fill:#000000;fill-opacity:1;fill-rule:nonzero;stroke:none"
         id="path74" /><path
         d="m 3500.08,2759.51 h -24.92 c -2.36,0 -4.26,1.91 -4.26,4.26 0,2.35 1.9,4.26 4.26,4.26 h 24.92 c 2.35,0 4.26,-1.91 4.26,-4.26 0,-2.35 -1.91,-4.26 -4.26,-4.26"
         style="fill:#000000;fill-opacity:1;fill-rule:nonzero;stroke:none"
         id="path76" /><path
         d="m 3487.62,2651.76 c -1.74,0 -3.36,1.07 -4,2.79 -11.97,32.66 24.92,61.42 26.51,62.63 1.85,1.42 4.53,1.09 5.96,-0.78 1.43,-1.87 1.08,-4.54 -0.79,-5.97 -0.33,-0.26 -33.5,-26.18 -23.69,-52.95 0.81,-2.2 -0.32,-4.65 -2.53,-5.45 -0.48,-0.18 -0.98,-0.27 -1.46,-0.27"
         style="fill:#000000;fill-opacity:1;fill-rule:nonzero;stroke:none"
         id="path78" /><path
         d="m 3556.36,2692.3 c -0.26,0 -0.5,0.02 -0.75,0.06 -2.31,0.41 -3.86,2.62 -3.45,4.94 l 4.09,23.29 -10.84,10.05 c -1.72,1.61 -1.82,4.3 -0.22,6.02 1.59,1.72 4.29,1.83 6.02,0.23 l 12.53,-11.64 c 1.05,-0.98 1.54,-2.43 1.29,-3.85 l -4.49,-25.58 c -0.36,-2.07 -2.16,-3.52 -4.18,-3.52"
         style="fill:#000000;fill-opacity:1;fill-rule:nonzero;stroke:none"
         id="path80" /><path
         d="m 3476.93,2701.21 c -0.25,0 -0.5,0.02 -0.75,0.06 -2.31,0.41 -3.86,2.62 -3.45,4.93 l 4.11,23.3 -10.84,10.05 c -1.73,1.6 -1.83,4.29 -0.24,6.02 1.6,1.72 4.29,1.82 6.02,0.22 l 12.54,-11.63 c 1.06,-0.98 1.55,-2.43 1.29,-3.85 l -4.5,-25.58 c -0.36,-2.07 -2.16,-3.52 -4.18,-3.52"
         style="fill:#000000;fill-opacity:1;fill-rule:nonzero;stroke:none"
         id="path82" /><path
         d="m 3096.46,2247.64 c -1.28,-20.86 -1.01,-52.53 8.54,-61.38 1.88,-1.76 4.05,-2.34 6.76,-1.82 2.59,0.5 4.15,1.65 5.04,3.74 4.49,10.54 -8.27,38.56 -20.34,59.46 z m 13.47,-71.89 c -4.02,0 -7.68,1.44 -10.72,4.26 -17.15,15.91 -10.88,74.77 -10.11,81.43 0.21,1.78 1.51,3.24 3.26,3.65 1.74,0.4 3.58,-0.32 4.54,-1.83 3.77,-5.84 36.6,-57.64 27.72,-78.43 -2,-4.69 -5.89,-7.72 -11.25,-8.75 -1.17,-0.22 -2.32,-0.33 -3.44,-0.33"
         style="fill:#ffffff;fill-opacity:1;fill-rule:nonzero;stroke:none"
         id="path84" /><path
         d="m 3688.17,2830.01 c 0,0 51.79,163.37 143.08,103.91 114.62,-74.66 -20.01,-219.73 -101.52,-170.15 -81.52,49.59 -41.56,66.24 -41.56,66.24"
         style="fill:#000000;fill-opacity:1;fill-rule:nonzero;stroke:none"
         id="path86" /><path
         d="m 3520.74,2613.64 c -2.71,0 -5.59,0.27 -8.63,0.88 -2.31,0.46 -3.8,2.71 -3.33,5.01 0.45,2.31 2.66,3.83 5.01,3.33 19.31,-3.9 30.83,9.7 30.96,9.85 1.51,1.8 4.2,2.03 5.98,0.53 1.81,-1.51 2.05,-4.19 0.54,-5.99 -0.52,-0.63 -11.61,-13.61 -30.53,-13.61"
         style="fill:#000000;fill-opacity:1;fill-rule:nonzero;stroke:none"
         id="path88" /><path
         d="m 3277.2,2090.9 c 0,0 28.75,-16.35 40.97,-64.25 12.22,-47.9 -20.49,-40.34 -20.49,-40.34 l -26.18,10.64 5.7,93.95"
         style="fill:#f48462;fill-opacity:1;fill-rule:nonzero;stroke:none"
         id="path90" /><path
         d="m 3241.02,1839.53 c 0,0 18.69,-49.82 102.72,-64.79 89.16,-15.89 158.97,28.31 158.97,28.31 l -45.32,141.79 -95.01,47.35 -121.36,-152.66"
         style="fill:#f48462;fill-opacity:1;fill-rule:nonzero;stroke:none"
         id="path92" /><path
         d="m 3289.2,2025.2 c 0,-135.55 -109.89,-245.44 -245.45,-245.44 -135.55,0 -245.44,109.89 -245.44,245.44 0,135.56 109.89,245.44 245.44,245.44 135.56,0 245.45,-109.88 245.45,-245.44"
         style="fill:#fca338;fill-opacity:1;fill-rule:nonzero;stroke:none"
         id="path94" /><path
         d="m 3247.09,2025.2 c 0,-112.29 -91.04,-203.33 -203.34,-203.33 -112.3,0 -203.33,91.04 -203.33,203.33 0,112.3 91.03,203.34 203.33,203.34 112.3,0 203.34,-91.04 203.34,-203.34"
         style="fill:#ffb655;fill-opacity:1;fill-rule:nonzero;stroke:none"
         id="path96" /><path
         d="m 2885.72,2085.01 c -0.46,0 -0.93,0.05 -1.39,0.17 -3.17,0.76 -5.1,3.95 -4.34,7.12 0.64,2.64 16.51,65 84.44,90.97 3.04,1.16 6.46,-0.35 7.62,-3.4 1.16,-3.04 -0.36,-6.45 -3.4,-7.61 -62.22,-23.79 -77.06,-82.16 -77.2,-82.75 -0.65,-2.69 -3.06,-4.5 -5.73,-4.5"
         style="fill:#ffdd92;fill-opacity:1;fill-rule:nonzero;stroke:none"
         id="path98" /><path
         d="m 2773.17,2038.51 c 0,0 -84.4,-17.42 -54.66,-54.3 29.74,-36.88 185.71,-41.84 198.03,5.69 12.34,47.53 -143.37,48.61 -143.37,48.61"
         style="fill:#f48462;fill-opacity:1;fill-rule:nonzero;stroke:none"
         id="path100" /><path
         d="m 2776.11,2109.76 c 0,0 -84.41,-17.42 -54.67,-54.3 29.75,-36.89 185.71,-41.84 198.04,5.69 12.33,47.52 -143.37,48.61 -143.37,48.61"
         style="fill:#f48462;fill-opacity:1;fill-rule:nonzero;stroke:none"
         id="path102" /><path
         d="m 2820.67,2172.97 c -19.03,4.5 -39,4.78 -57.65,-1.09 -16.52,-5.2 -30.48,-14.98 -20.3,-33.3 20.38,-36.65 155.63,-64.48 173.55,-24.9 13.3,29.38 -57.96,50.4 -95.6,59.29"
         style="fill:#f48462;fill-opacity:1;fill-rule:nonzero;stroke:none"
         id="path104" /><path
         d="m 2864.47,2025.4 c -0.26,0.01 -109.61,6.78 -109.61,6.78 -2.34,0.14 -4.13,2.16 -3.98,4.51 0.14,2.34 2.22,4.06 4.51,3.98 l 109.35,-6.77 c 2.34,-0.14 4.13,-2.16 3.98,-4.51 -0.14,-2.26 -2.01,-3.99 -4.25,-3.99"
         style="fill:#000000;fill-opacity:1;fill-rule:nonzero;stroke:none"
         id="path106" /><path
         d="m 2876.34,2090.57 c -0.22,0 -0.42,0.02 -0.64,0.05 l -100.21,14.93 c -2.33,0.34 -3.94,2.51 -3.59,4.83 0.35,2.34 2.51,3.96 4.84,3.59 l 100.21,-14.93 c 2.33,-0.35 3.94,-2.51 3.59,-4.84 -0.32,-2.11 -2.13,-3.63 -4.2,-3.63"
         style="fill:#000000;fill-opacity:1;fill-rule:nonzero;stroke:none"
         id="path108" /><path
         d="m 3797.05,2453.92 c 0,0 256.84,-119.57 213.78,-483.37 C 3981,1718.52 3462.1,1763.63 3462.1,1763.63 l -24.19,239.4 c 0,0 268.67,72.89 291.3,85.23 43.73,23.84 67.84,365.66 67.84,365.66"
         style="fill:#f7b369;fill-opacity:1;fill-rule:nonzero;stroke:none"
         id="path110" /><path
         d="m 3445.7,1990.73 c -1.6,0 -3.13,0.92 -3.85,2.47 -1,2.13 -0.07,4.66 2.06,5.65 1.62,0.75 163.98,75.63 329.95,105.04 2.29,0.38 4.53,-1.13 4.93,-3.45 0.41,-2.31 -1.13,-4.52 -3.45,-4.93 -164.84,-29.22 -326.23,-103.63 -327.84,-104.38 -0.59,-0.27 -1.19,-0.4 -1.8,-0.4"
         style="fill:#ffffff;fill-opacity:1;fill-rule:nonzero;stroke:none"
         id="path112" /><path
         d="m 3733.03,2142.07 c -15.43,0 -37.03,-29.76 -51.66,-56.23 30.5,21.38 58.54,45.71 57.46,53.93 -0.04,0.25 -0.14,1.03 -2.39,1.76 -1.09,0.36 -2.23,0.54 -3.41,0.54 z m -63.11,-73.39 c -1,0 -2,0.36 -2.8,1.06 -1.44,1.25 -1.87,3.31 -1.04,5.03 4.17,8.75 41.7,85.12 73.02,74.85 6.38,-2.1 7.85,-6.37 8.17,-8.74 2.52,-19.11 -56.78,-59.56 -75.01,-71.5 -0.72,-0.47 -1.53,-0.7 -2.34,-0.7"
         style="fill:#ffffff;fill-opacity:1;fill-rule:nonzero;stroke:none"
         id="path114" /><path
         d="m 3362.38,1992.19 c 0,0 -205.58,57.34 -221.63,27.06 -11.89,-22.43 20,-42.25 20,-42.25 0,0 -56.67,2.47 -47.73,-22.74 8.94,-25.21 49.08,-39.93 49.08,-39.93 0,0 -78.68,-0.36 -31.11,-49.08 38.61,-39.56 137.17,-51.75 218.61,-39.1 81.42,12.65 12.78,166.04 12.78,166.04"
         style="fill:#f48462;fill-opacity:1;fill-rule:nonzero;stroke:none"
         id="path116" /><path
         d="m 3295.78,1951.14 c -0.21,0 -0.43,0.02 -0.64,0.05 l -135.89,20.44 c -2.33,0.35 -3.93,2.52 -3.58,4.84 0.35,2.33 2.55,3.93 4.85,3.57 l 135.89,-20.43 c 2.32,-0.35 3.92,-2.52 3.57,-4.84 -0.31,-2.11 -2.13,-3.63 -4.2,-3.63"
         style="fill:#000000;fill-opacity:1;fill-rule:nonzero;stroke:none"
         id="path118" /><path
         d="m 3289.21,1893.38 c -0.19,0 -0.37,0.01 -0.56,0.03 l -140.24,18.02 c -2.33,0.3 -3.98,2.44 -3.67,4.77 0.29,2.33 2.49,3.95 4.76,3.68 l 140.25,-18.02 c 2.32,-0.3 3.97,-2.44 3.67,-4.76 -0.28,-2.15 -2.1,-3.72 -4.21,-3.72"
         style="fill:#000000;fill-opacity:1;fill-rule:nonzero;stroke:none"
         id="path120" /><path
         d="m 2610.56,823.488 c 0,0 90.21,-107.429 111.25,-117.668 21.04,-10.261 240.58,-85.3 282.56,-126.781 41.99,-41.48 44.63,-122.641 32.55,-130.211 -12.08,-7.558 -735.34,3.32 -735.34,3.32 l -6.01,348.813 314.99,22.527"
         style="fill:#efa459;fill-opacity:1;fill-rule:nonzero;stroke:none"
         id="path122" /><path
         d="m 2702.54,838.672 c 0,0 -263.09,727.418 -468.94,866.998 -167.41,113.51 -597.61,114.3 -597.61,114.3 l 345.81,-643.63 251.8,-436.988 468.94,99.32"
         style="fill:#59acc9;fill-opacity:1;fill-rule:nonzero;stroke:none"
         id="path124" /><path
         d="m 1951.26,2663.08 c 0,0 149.76,74.83 205.2,58.72 55.44,-16.12 24.52,-50.67 24.52,-50.67 0,0 19.65,-21.89 8.6,-43.74 -11.05,-21.84 -11.05,-21.84 -11.05,-21.84 0,0 8.61,-8.71 2.45,-39.59 -6.16,-30.87 -83.69,-131.85 -183.06,-95.85 -99.36,36 -46.66,192.97 -46.66,192.97"
         style="fill:#f48462;fill-opacity:1;fill-rule:nonzero;stroke:none"
         id="path126" /><path
         d="m 1571.58,2473.44 -90.78,72.41 -114.41,8.67 -105.51,-39.18 55.23,-683.05 c 0,0 166.21,-45.34 275.91,12.52 109.7,57.86 -20.44,628.63 -20.44,628.63"
         style="fill:#f7b369;fill-opacity:1;fill-rule:nonzero;stroke:none"
         id="path128" /><path
         d="m 1147.73,2488.64 c 51.56,47.81 135.52,60.99 184.86,64.58 0,0 -12.11,-323.43 4.94,-522.5 9.64,-112.52 15.5,-190.81 18.75,-237.68 -118.46,-2.93 -250.87,0.76 -250.87,0.76 0,0 -33.96,624.13 42.32,694.84"
         style="fill:#5c69a5;fill-opacity:1;fill-rule:nonzero;stroke:none"
         id="path130" /><path
         d="m 1680.08,2039.22 c -0.66,-120.11 -3.44,-217.54 -3.44,-217.54 0,0 -22.28,-15.56 -103.52,-29.77 -4.12,51.61 -26.81,227.45 -40.99,358.77 -18.15,167.94 -51.33,395.17 -51.33,395.17 l -148.21,7.31 c 14.97,1.09 26.9,1.36 33.8,1.36 4.1,0 6.49,-0.13 6.49,-0.13 0,0 167.25,-6.84 246.37,-49.06 0,0 1.99,-1.09 5.57,-3.01 13.51,-8.06 24.12,-17.35 29.95,-27.87 23.06,-41.41 26.5,-261.82 25.31,-435.23"
         style="fill:#5c69a5;fill-opacity:1;fill-rule:nonzero;stroke:none"
         id="path132" /><path
         d="m 1241.41,2537.63 c 0,0 -186.97,-29.86 -297.703,-176.99 -94.937,-126.12 -125.324,-269.6 -125.324,-269.6 0,0 105.133,17.68 168.801,17.02 63.666,-0.67 155.246,-8.2 155.246,-8.2 l 98.98,437.77"
         style="fill:#5c69a5;fill-opacity:1;fill-rule:nonzero;stroke:none"
         id="path134" /><path
         d="m 1535.75,2828.7 c 0,0 37.54,122.77 -17.64,148.37 -55.17,25.59 -90.84,-46.11 -90.84,-46.11 0,0 -124.83,-8.21 -173.67,-73.85 -48.84,-65.63 64.87,-185.15 64.87,-185.15 l 217.28,156.74"
         style="fill:#000000;fill-opacity:1;fill-rule:nonzero;stroke:none"
         id="path136" /><path
         d="m 1339.99,2646.14 -9.71,-114.6 c 0,0 17.87,-34.7 84.46,-45.84 49.6,-8.29 68.11,1.52 68.11,1.52 l -2.05,58.63 -2.07,57.19 -118.8,36.89 -19.94,6.21"
         style="fill:#f48462;fill-opacity:1;fill-rule:nonzero;stroke:none"
         id="path138" /><path
         d="m 1359.93,2639.93 c 0.02,-3.16 0.89,-6.95 2.39,-11.34 20.79,-59.43 89.85,-77.71 118.48,-82.74 l -2.07,57.19 -118.8,36.89"
         style="fill:#000000;fill-opacity:1;fill-rule:nonzero;stroke:none"
         id="path140" /><path
         d="m 1526.43,2862.11 c 0,0 47.97,-148.8 17.49,-226.63 -30.48,-77.82 -102.17,-57.89 -144.27,-38.03 -42.1,19.86 -59.68,48.67 -59.68,48.67 0,0 -42.16,-9.74 -65.63,30.92 -23.47,40.66 -2.3,82.51 21.98,90.16 24.29,7.64 50.29,-11.95 50.29,-11.95 l -17.54,43.6 c 0,0 112.43,201.36 197.36,63.26"
         style="fill:#f48462;fill-opacity:1;fill-rule:nonzero;stroke:none"
         id="path142" /><path
         d="m 1337.51,2693.73 c -1.05,0 -2.11,0.36 -2.97,1.09 l -48.49,41.51 c -1.91,1.64 -2.14,4.53 -0.49,6.45 1.64,1.92 4.53,2.14 6.44,0.5 l 48.49,-41.51 c 1.92,-1.64 2.14,-4.53 0.5,-6.45 -0.91,-1.05 -2.19,-1.59 -3.48,-1.59"
         style="fill:#000000;fill-opacity:1;fill-rule:nonzero;stroke:none"
         id="path144" /><path
         d="m 1290.5,2698.35 c -2.19,0 -4.12,1.58 -4.5,3.81 -0.42,2.49 1.26,4.85 3.75,5.27 l 34.74,5.87 c 2.51,0.43 4.85,-1.25 5.27,-3.75 0.42,-2.48 -1.25,-4.84 -3.74,-5.26 l -34.75,-5.87 c -0.26,-0.04 -0.51,-0.07 -0.77,-0.07"
         style="fill:#000000;fill-opacity:1;fill-rule:nonzero;stroke:none"
         id="path146" /><path
         d="m 1508.78,2698.35 c -0.36,0 -0.72,0.04 -1.08,0.13 -2.45,0.59 -3.96,3.06 -3.37,5.51 8.18,33.94 -12.76,54.57 -12.97,54.78 -1.82,1.75 -1.87,4.64 -0.13,6.46 1.75,1.82 4.66,1.88 6.47,0.13 1.02,-0.99 24.91,-24.52 15.52,-63.5 -0.51,-2.1 -2.38,-3.51 -4.44,-3.51"
         style="fill:#000000;fill-opacity:1;fill-rule:nonzero;stroke:none"
         id="path148" /><path
         d="m 1532.13,2750.72 c -2.16,0 -4.09,1.55 -4.49,3.75 l -4.95,26.9 c -0.45,2.48 1.19,4.86 3.67,5.32 2.47,0.43 4.86,-1.19 5.32,-3.67 l 4.95,-26.89 c 0.45,-2.49 -1.19,-4.87 -3.67,-5.33 -0.28,-0.05 -0.56,-0.08 -0.83,-0.08"
         style="fill:#000000;fill-opacity:1;fill-rule:nonzero;stroke:none"
         id="path150" /><path
         d="m 1459.48,2755.45 c -2.16,0 -4.09,1.55 -4.49,3.75 l -4.95,26.89 c -0.45,2.48 1.19,4.87 3.68,5.33 2.5,0.44 4.86,-1.19 5.32,-3.68 l 4.94,-26.88 c 0.46,-2.48 -1.18,-4.87 -3.67,-5.33 -0.28,-0.05 -0.55,-0.08 -0.83,-0.08"
         style="fill:#000000;fill-opacity:1;fill-rule:nonzero;stroke:none"
         id="path152" /><path
         d="m 1535.75,2828.7 c 0,0 -10.49,24.09 -39.07,26.71 -28.57,2.62 -46.97,-16.1 -46.97,-16.1 0,0 8.46,-49.21 -32.58,-71.48 -41.05,-22.28 -70.52,-12.58 -70.52,-12.58 l -27.35,12.44 -17.19,42.95 89.03,81 110.3,46.79 41.62,-44.76 -7.27,-64.97"
         style="fill:#000000;fill-opacity:1;fill-rule:nonzero;stroke:none"
         id="path154" /><path
         d="m 1445.03,2478.04 c -68.68,0 -115.13,43.91 -115.67,44.42 -1.82,1.76 -1.87,4.65 -0.12,6.47 1.74,1.82 4.66,1.86 6.46,0.12 0.61,-0.58 61.57,-58.04 146.06,-37.39 2.43,0.6 4.92,-0.91 5.53,-3.36 0.6,-2.46 -0.91,-4.93 -3.36,-5.53 -13.58,-3.32 -26.61,-4.73 -38.9,-4.73"
         style="fill:#a37b90;fill-opacity:1;fill-rule:nonzero;stroke:none"
         id="path156" /><path
         d="m 1427.27,2930.96 c 0,0 1.65,63.74 -67.34,41.33 -69,-22.41 -70.9,-109.4 -70.9,-109.4 l 138.24,68.07"
         style="fill:#000000;fill-opacity:1;fill-rule:nonzero;stroke:none"
         id="path158" /><path
         d="m 1539.72,2807.57 h -21.61 c -2.52,0 -4.57,2.05 -4.57,4.57 0,2.53 2.05,4.57 4.57,4.57 h 21.61 c 2.53,0 4.57,-2.04 4.57,-4.57 0,-2.52 -2.04,-4.57 -4.57,-4.57"
         style="fill:#000000;fill-opacity:1;fill-rule:nonzero;stroke:none"
         id="path160" /><path
         d="m 1440.57,2801.03 c -2.31,0 -4.3,1.74 -4.55,4.09 -0.26,2.51 1.56,4.76 4.07,5.02 l 35.38,3.71 c 2.63,0.31 4.76,-1.55 5.02,-4.06 0.27,-2.52 -1.56,-4.77 -4.06,-5.03 l -35.38,-3.71 c -0.16,-0.02 -0.32,-0.02 -0.48,-0.02"
         style="fill:#000000;fill-opacity:1;fill-rule:nonzero;stroke:none"
         id="path162" /><path
         d="m 1144.09,2106.91 c -0.22,0 -0.43,0.01 -0.65,0.04 -2.5,0.36 -4.24,2.67 -3.88,5.17 l 7.94,55.72 c 0.36,2.5 2.67,4.22 5.17,3.88 2.5,-0.35 4.24,-2.67 3.88,-5.17 l -7.94,-55.71 c -0.33,-2.29 -2.28,-3.93 -4.52,-3.93"
         style="fill:#a37b90;fill-opacity:1;fill-rule:nonzero;stroke:none"
         id="path164" /><path
         d="m 1905.24,2568.73 -63.73,-268.71 -55.06,-306.55 c 0,0 176.1,-40.96 240.67,68.03 64.57,108.99 30.4,402.24 30.4,402.24 l -152.28,104.99"
         style="fill:#f48462;fill-opacity:1;fill-rule:nonzero;stroke:none"
         id="path166" /><path
         d="m 1992.54,758.238 c 0,0 36.27,-143.547 65.95,-158.769 29.68,-15.219 157.3,-96.11 226.5,-169.328 58.03,-61.391 -0.43,-96.25 -0.43,-96.25 l -402.96,1.82 -345.27,256.039 124.94,264.141 331.27,-97.653"
         style="fill:#f7b369;fill-opacity:1;fill-rule:nonzero;stroke:none"
         id="path168" /><path
         d="m 2112.45,711.879 c 0,0 55.15,790.591 -50.28,978.011 -73.33,130.36 -266.73,139.98 -397.88,150.37 -50.73,4.03 -101.69,3.61 -152.41,-0.45 l -401.35,-32.15 c 0,0 -87.85,-283.58 68.23,-365.78 124.85,-65.74 428.69,-123.89 428.69,-123.89 L 1594,765.77 2112.45,711.879"
         style="fill:#68b6d8;fill-opacity:1;fill-rule:nonzero;stroke:none"
         id="path170" /><path
         d="m 1188.12,1669.44 c -1.9,0 -3.67,1.19 -4.32,3.08 -0.82,2.4 0.45,4.99 2.84,5.82 0.78,0.27 78.46,27.65 69.29,85.26 -0.39,2.49 1.31,4.83 3.8,5.23 2.46,0.44 4.83,-1.3 5.24,-3.8 10.37,-65.2 -74.51,-95.05 -75.37,-95.35 -0.49,-0.16 -0.99,-0.24 -1.48,-0.24"
         style="fill:#40507f;fill-opacity:1;fill-rule:nonzero;stroke:none"
         id="path172" /><path
         d="m 1624.82,2502.32 233.71,-130.52 -4.92,-399.09 c 0,0 -173.32,-37.45 -213.29,49.19 -63.45,137.51 -15.5,480.42 -15.5,480.42"
         style="fill:#5c69a5;fill-opacity:1;fill-rule:nonzero;stroke:none"
         id="path174" /><path
         d="m 1535.01,2481.59 c 0,0 31.9,-144.78 -6.64,-210.56 -38.55,-65.77 -182.35,-160.98 -219.42,-317.76 -28.7,-121.41 -40.6,-268.07 -40.6,-268.07 l 226.11,-36.81 c 0,0 22.34,189 47.06,251.26 36.12,90.94 169.07,224.65 206.81,317.57 37.74,92.92 10.9,227.87 10.9,227.87 l -224.22,36.5"
         style="fill:#ffffff;fill-opacity:1;fill-rule:nonzero;stroke:none"
         id="path176" /><path
         d="m 1485.63,1732.33 -164.71,30.6 4.06,21.85 164.71,-30.6 -4.06,-21.85"
         style="fill:#eeecf1;fill-opacity:1;fill-rule:nonzero;stroke:none"
         id="path178" /><path
         d="m 1571.82,2025.87 -165.36,26.91 3.57,21.94 165.36,-26.92 -3.57,-21.93"
         style="fill:#eeecf1;fill-opacity:1;fill-rule:nonzero;stroke:none"
         id="path180" /><path
         d="m 1755.64,2295.89 -166.88,14.75 1.96,22.14 166.88,-14.75 -1.96,-22.14"
         style="fill:#eeecf1;fill-opacity:1;fill-rule:nonzero;stroke:none"
         id="path182" /><path
         d="m 1539.72,1969.18 -165.36,26.91 3.57,21.94 165.36,-26.92 -3.57,-21.93"
         style="fill:#eeecf1;fill-opacity:1;fill-rule:nonzero;stroke:none"
         id="path184" /><path
         d="m 1757.21,2347.67 -166.88,14.75 1.95,22.13 166.88,-14.75 -1.95,-22.13"
         style="fill:#eeecf1;fill-opacity:1;fill-rule:nonzero;stroke:none"
         id="path186" /><path
         d="m 2467.05,2663.26 c 0,-135.56 -109.89,-245.45 -245.44,-245.45 -135.56,0 -245.44,109.89 -245.44,245.45 0,135.55 109.88,245.44 245.44,245.44 135.55,0 245.44,-109.89 245.44,-245.44"
         style="fill:#fca338;fill-opacity:1;fill-rule:nonzero;stroke:none"
         id="path188" /><path
         d="m 2424.94,2663.26 c 0,-112.3 -91.03,-203.34 -203.33,-203.34 -112.3,0 -203.33,91.04 -203.33,203.34 0,112.29 91.03,203.33 203.33,203.33 112.3,0 203.33,-91.04 203.33,-203.33"
         style="fill:#ffb655;fill-opacity:1;fill-rule:nonzero;stroke:none"
         id="path190" /><path
         d="m 2063.58,2724.7 c -0.34,0 -0.68,0.04 -1.01,0.12 -2.29,0.56 -3.69,2.86 -3.13,5.14 0.63,2.61 16.31,64.16 83.44,89.83 2.18,0.84 4.65,-0.25 5.49,-2.45 0.84,-2.2 -0.26,-4.66 -2.45,-5.5 -63,-24.09 -78.06,-83.29 -78.21,-83.89 -0.47,-1.94 -2.22,-3.25 -4.13,-3.25"
         style="fill:#fff2bb;fill-opacity:1;fill-rule:nonzero;stroke:none"
         id="path192" /><path
         d="m 1490.01,1801.59 -108.56,20.16 5.28,28.4 108.55,-20.16 -5.27,-28.4"
         style="fill:#eeecf1;fill-opacity:1;fill-rule:nonzero;stroke:none"
         id="path194" /><path
         d="m 1500.07,1862.09 -108.55,20.16 5.28,28.4 108.55,-20.17 -5.28,-28.39"
         style="fill:#eeecf1;fill-opacity:1;fill-rule:nonzero;stroke:none"
         id="path196" /><path
         d="m 1532.44,1920.56 -108.55,20.17 5.27,28.4 108.55,-20.16 -5.27,-28.41"
         style="fill:#eeecf1;fill-opacity:1;fill-rule:nonzero;stroke:none"
         id="path198" /><path
         d="m 1619.83,2070.96 -108.97,17.74 4.64,28.51 108.97,-17.73 -4.64,-28.52"
         style="fill:#eeecf1;fill-opacity:1;fill-rule:nonzero;stroke:none"
         id="path200" /><path
         d="m 1734.01,2236.95 -109.98,9.72 2.54,28.78 109.98,-9.72 -2.54,-28.78"
         style="fill:#eeecf1;fill-opacity:1;fill-rule:nonzero;stroke:none"
         id="path202" /><path
         d="m 844.355,2095.07 c 0,0 -53.886,-169.26 79.184,-244.48 133.071,-75.21 525.821,130.94 525.821,130.94 l -58,156.35 -293.43,-29.82 c 0,0 -211.266,0.06 -253.575,-12.99"
         style="fill:#f48462;fill-opacity:1;fill-rule:nonzero;stroke:none"
         id="path204" /><path
         d="m 1685.58,1398.85 c -17.64,0 -50.37,-39.73 -70.75,-70.05 20.14,3.17 65.64,12.61 79.81,34.81 4.63,7.24 5.36,15.12 2.25,24.08 -3.58,10.34 -8.46,10.9 -10.06,11.08 -0.41,0.05 -0.83,0.08 -1.25,0.08 z m -80.05,-80.5 c -1.58,0 -3.06,0.82 -3.89,2.17 -0.92,1.5 -0.91,3.37 0.02,4.86 5.59,8.8 55.52,85.97 86.22,82.49 8.09,-0.94 14.02,-6.72 17.66,-17.18 4.02,-11.62 2.95,-22.38 -3.2,-32.01 -20.69,-32.39 -93.28,-39.99 -96.36,-40.31 -0.15,-0.01 -0.3,-0.02 -0.45,-0.02"
         style="fill:#40507f;fill-opacity:1;fill-rule:nonzero;stroke:none"
         id="path206" /><path
         d="m 1480.8,2213.33 -36.54,-38.38 104.15,-33.24 c 0,0 105.56,-37.55 117.7,-57.58 12.14,-20.04 -36.91,-28.3 -36.91,-28.3 0,0 76.11,-25.4 45.73,-49.82 -30.39,-24.43 -85.79,-11.76 -85.79,-11.76 0,0 76.75,-21.49 37.6,-47.61 -21.16,-14.13 -213.81,-0.78 -302.76,66.24 -88.96,67.01 -3.19,111.62 -3.19,111.62 0,0 47.93,108.99 160.01,88.83"
         style="fill:#f48462;fill-opacity:1;fill-rule:nonzero;stroke:none"
         id="path208" /><path
         d="m 1628.79,2058.52 c -0.49,0 -0.99,0.08 -1.49,0.25 l -114.84,39.56 c -2.39,0.82 -3.66,3.42 -2.84,5.81 0.82,2.39 3.44,3.67 5.81,2.83 l 114.85,-39.55 c 2.39,-0.82 3.66,-3.43 2.83,-5.81 -0.64,-1.9 -2.42,-3.09 -4.32,-3.09"
         style="fill:#000000;fill-opacity:1;fill-rule:nonzero;stroke:none"
         id="path210" /><path
         d="m 1598.66,1990.35 c -0.44,0 -0.88,0.07 -1.32,0.2 l -100.86,30.27 c -2.42,0.73 -3.8,3.28 -3.07,5.69 0.73,2.42 3.28,3.79 5.7,3.07 l 100.86,-30.27 c 2.42,-0.73 3.79,-3.28 3.07,-5.7 -0.6,-1.98 -2.42,-3.26 -4.38,-3.26"
         style="fill:#000000;fill-opacity:1;fill-rule:nonzero;stroke:none"
         id="path212" /><path
         d="m 1470.6,2670.45 c 1.24,-5.45 4.37,-13.43 12.24,-14.97 7.11,-1.4 13.28,5.63 16.74,10.8 z m 14.19,-23.68 c -1.16,0 -2.35,0.12 -3.59,0.36 -18.73,3.67 -19.85,27.18 -19.89,28.18 -0.05,1.26 0.47,2.48 1.41,3.33 0.93,0.85 2.18,1.24 3.45,1.05 l 40.88,-5.89 c 1.33,-0.19 2.49,-1 3.13,-2.18 0.64,-1.19 0.69,-2.6 0.12,-3.82 -0.42,-0.92 -9.94,-21.03 -25.51,-21.03"
         style="fill:#000000;fill-opacity:1;fill-rule:nonzero;stroke:none"
         id="path214" /><path
         d="m 2543.57,543.621 c -0.07,0 -112.32,1.809 -112.32,1.809 -2.52,0.031 -4.53,2.109 -4.49,4.64 0.04,2.5 2.08,4.5 4.57,4.5 0.08,0 112.32,-1.808 112.32,-1.808 2.52,-0.043 4.53,-2.121 4.49,-4.653 -0.04,-2.488 -2.08,-4.488 -4.57,-4.488"
         style="fill:#f7b369;fill-opacity:1;fill-rule:nonzero;stroke:none"
         id="path216" /><path
         d="m 1905.24,2568.73 c 0,0 15.84,76.27 18.26,103.23 3,33.5 71.96,81.09 91.96,66.6 20,-14.49 -28.4,-82.54 -28.4,-82.54 0,0 46.5,-159.1 -16.75,-175.41 -63.25,-16.3 -65.07,88.12 -65.07,88.12"
         style="fill:#f48462;fill-opacity:1;fill-rule:nonzero;stroke:none"
         id="path218" /><path
         d="m 2004.72,2521.08 c -0.43,0 -0.87,0.06 -1.31,0.19 -2.41,0.73 -3.79,3.27 -3.07,5.69 13.72,45.95 -15.08,118.7 -15.37,119.42 -0.95,2.35 0.19,5.01 2.53,5.95 2.37,0.93 5.01,-0.2 5.95,-2.54 1.25,-3.1 30.27,-76.47 15.65,-125.44 -0.59,-1.99 -2.41,-3.27 -4.38,-3.27"
         style="fill:#000000;fill-opacity:1;fill-rule:nonzero;stroke:none"
         id="path220" /><path
         d="m 4381.14,1682.42 c 0,-146.33 -118.62,-264.95 -264.95,-264.95 -146.33,0 -264.95,118.62 -264.95,264.95 0,146.33 118.62,264.95 264.95,264.95 146.33,0 264.95,-118.62 264.95,-264.95"
         style="fill:#eeecf1;fill-opacity:1;fill-rule:nonzero;stroke:none"
         id="path222" /><path
         d="m 4233.82,1682.42 c 0,-64.96 -52.67,-117.63 -117.63,-117.63 -64.96,0 -117.63,52.67 -117.63,117.63 0,64.96 52.67,117.62 117.63,117.62 64.96,0 117.63,-52.66 117.63,-117.62"
         style="fill:#ddd7e0;fill-opacity:1;fill-rule:nonzero;stroke:none"
         id="path224" /><path
         d="m 1119.4,1664.96 c 0,-146.33 -118.62,-264.95 -264.947,-264.95 -146.328,0 -264.953,118.62 -264.953,264.95 0,146.33 118.625,264.95 264.953,264.95 146.327,0 264.947,-118.62 264.947,-264.95"
         style="fill:#eeecf1;fill-opacity:1;fill-rule:nonzero;stroke:none"
         id="path226" /><path
         d="m 972.074,1664.96 c 0,-64.96 -52.66,-117.63 -117.621,-117.63 -64.965,0 -117.629,52.67 -117.629,117.63 0,64.96 52.664,117.62 117.629,117.62 64.961,0 117.621,-52.66 117.621,-117.62"
         style="fill:#ddd7e0;fill-opacity:1;fill-rule:nonzero;stroke:none"
         id="path228" /><path
         d="m 5010.92,1837.44 c -68.52,-137.93 -181.57,-221.18 -252.52,-185.94 -70.95,35.24 -72.92,175.63 -4.4,313.56 68.52,137.94 181.58,221.19 252.52,185.94 70.95,-35.24 72.92,-175.63 4.4,-313.56"
         style="fill:#90a38d;fill-opacity:1;fill-rule:nonzero;stroke:none"
         id="path230" /><path
         d="m 4278.97,1847.36 c 134.21,-75.55 211.51,-192.76 172.64,-261.79 -38.86,-69.03 -179.16,-63.75 -313.37,11.81 -134.21,75.55 -211.5,192.76 -172.64,261.79 38.86,69.03 179.17,63.75 313.37,-11.81"
         style="fill:#90a38d;fill-opacity:1;fill-rule:nonzero;stroke:none"
         id="path232" /><path
         d="m 4250.89,1289.85 c -112.91,17.04 -197.34,77.93 -188.58,136 8.76,58.07 107.4,91.34 220.31,74.31 112.9,-17.04 197.33,-77.93 188.56,-136 -8.76,-58.07 -107.39,-91.34 -220.29,-74.31"
         style="fill:#90a38d;fill-opacity:1;fill-rule:nonzero;stroke:none"
         id="path234" /><path
         d="m 4902.54,1687.58 c 123,92.7 261.35,116.57 309.03,53.31 47.69,-63.27 -13.37,-189.69 -136.36,-282.4 -122.99,-92.69 -261.34,-116.56 -309.03,-53.3 -47.68,63.26 13.37,189.7 136.36,282.39"
         style="fill:#90a38d;fill-opacity:1;fill-rule:nonzero;stroke:none"
         id="path236" /><path
         d="m 4599.14,1185.57 c -1.95,0 -3.76,1.26 -4.37,3.22 -81.07,262.28 -360.98,222.88 -363.82,222.47 -2.46,-0.28 -4.82,1.35 -5.21,3.84 -0.38,2.49 1.34,4.83 3.83,5.21 2.92,0.43 290.51,41.06 373.94,-228.82 0.75,-2.41 -0.61,-4.97 -3.02,-5.71 -0.45,-0.15 -0.9,-0.21 -1.35,-0.21"
         style="fill:#507849;fill-opacity:1;fill-rule:nonzero;stroke:none"
         id="path238" /><path
         d="m 4622.49,1205.28 c -2.08,0 -3.97,1.42 -4.45,3.53 -74.79,320.77 -354.59,502.84 -357.41,504.64 -2.12,1.36 -2.75,4.18 -1.38,6.31 1.35,2.14 4.19,2.75 6.31,1.39 2.85,-1.82 285.73,-185.78 361.38,-510.27 0.58,-2.46 -0.95,-4.91 -3.42,-5.48 -0.34,-0.08 -0.69,-0.12 -1.03,-0.12"
         style="fill:#507849;fill-opacity:1;fill-rule:nonzero;stroke:none"
         id="path240" /><path
         d="m 4603.54,1076.05 c -2.26,0 -4.22,1.68 -4.52,3.99 -40.14,314.46 288.17,879.62 291.49,885.29 1.28,2.19 4.08,2.91 6.26,1.64 2.17,-1.28 2.91,-4.08 1.63,-6.26 -3.3,-5.64 -330.06,-568.14 -290.31,-879.51 0.32,-2.5 -1.45,-4.8 -3.96,-5.11 -0.2,-0.03 -0.39,-0.04 -0.59,-0.04"
         style="fill:#507849;fill-opacity:1;fill-rule:nonzero;stroke:none"
         id="path242" /><path
         d="m 4636.54,1228.39 c -0.2,0 -0.41,0.01 -0.61,0.04 -2.5,0.34 -4.26,2.64 -3.93,5.14 0.31,2.33 35.57,235.92 413.01,409.18 2.27,1.07 5.01,0.05 6.05,-2.25 1.06,-2.29 0.05,-5.01 -2.24,-6.05 -372.44,-170.98 -407.44,-399.81 -407.76,-402.09 -0.31,-2.3 -2.27,-3.97 -4.52,-3.97"
         style="fill:#507849;fill-opacity:1;fill-rule:nonzero;stroke:none"
         id="path244" /><path
         d="m 4818.82,741.25 h -317.51 c -17.22,0 -31.63,12.25 -33.32,28.34 l -48.58,462.55 c -1.94,18.49 13.53,34.52 33.32,34.52 h 414.65 c 19.8,0 35.27,-16.03 33.32,-34.52 l -48.57,-462.55 c -1.69,-16.09 -16.1,-28.34 -33.31,-28.34"
         style="fill:#bbafc0;fill-opacity:1;fill-rule:nonzero;stroke:none"
         id="path246" /><path
         d="m 4748.53,741.25 h -317.51 c -17.21,0 -31.62,12.25 -33.31,28.34 l -48.57,462.55 c -1.94,18.49 13.53,34.52 33.31,34.52 h 414.66 c 19.78,0 35.26,-16.03 33.32,-34.52 l -48.58,-462.55 c -1.68,-16.09 -16.1,-28.34 -33.32,-28.34"
         style="fill:#ddd7e0;fill-opacity:1;fill-rule:nonzero;stroke:none"
         id="path248" /><path
         d="m 844.102,3167.5 c 0,-122.73 -99.493,-222.23 -222.227,-222.23 -122.73,0 -222.227,99.5 -222.227,222.23 0,122.73 99.497,222.23 222.227,222.23 122.734,0 222.227,-99.5 222.227,-222.23"
         style="fill:#ddd7e0;fill-opacity:1;fill-rule:nonzero;stroke:none"
         id="path250" /><path
         d="m 796.188,3167.5 c 0,-96.27 -78.043,-174.31 -174.313,-174.31 -96.27,0 -174.312,78.04 -174.312,174.31 0,96.27 78.042,174.31 174.312,174.31 96.27,0 174.313,-78.04 174.313,-174.31"
         style="fill:#ffffff;fill-opacity:1;fill-rule:nonzero;stroke:none"
         id="path252" /><path
         d="m 615.082,3149.35 c -0.875,0 -1.754,0.17 -2.586,0.49 -2.125,0.84 -3.707,2.66 -4.246,4.88 l -21.043,86.68 c -0.918,3.78 1.402,7.58 5.172,8.49 3.789,0.94 7.57,-1.4 8.488,-5.17 l 18.699,-77.01 116.688,76.28 c 3.246,2.12 7.609,1.21 9.73,-2.04 2.125,-3.25 1.211,-7.6 -2.035,-9.73 L 618.93,3150.5 c -1.16,-0.76 -2.5,-1.15 -3.848,-1.15"
         style="fill:#a89fb3;fill-opacity:1;fill-rule:nonzero;stroke:none"
         id="path254" /><path
         d="m 3701.93,3375.48 c 0,-51.89 -42.07,-93.95 -93.96,-93.95 -51.89,0 -93.96,42.06 -93.96,93.95 0,51.9 42.07,93.96 93.96,93.96 51.89,0 93.96,-42.06 93.96,-93.96"
         style="fill:#90a38d;fill-opacity:1;fill-rule:nonzero;stroke:none"
         id="path256" /><path
         d="m 3688.76,3124.22 -134.89,1.68 c -7.33,0.09 -13.38,5.37 -14.02,12.22 l -18.19,196.77 c -0.72,7.87 5.94,14.6 14.34,14.49 l 176.17,-2.19 c 8.41,-0.1 14.9,-6.99 13.97,-14.84 l -23.07,-196.26 c -0.81,-6.83 -7,-11.96 -14.31,-11.87"
         style="fill:#ddd7e0;fill-opacity:1;fill-rule:nonzero;stroke:none"
         id="path258" /><path
         d="m 3658.9,3124.59 -134.9,1.68 c -7.31,0.09 -13.37,5.37 -14,12.22 l -18.19,196.78 c -0.73,7.86 5.92,14.59 14.33,14.48 l 176.17,-2.19 c 8.41,-0.1 14.9,-6.99 13.98,-14.84 l -23.09,-196.26 c -0.8,-6.83 -6.99,-11.96 -14.3,-11.87"
         style="fill:#eeecf1;fill-opacity:1;fill-rule:nonzero;stroke:none"
         id="path260" /><path
         d="m 4394.35,3130.2 h -370.11 c -19.23,0 -34.81,15.58 -34.81,34.8 v 5 c 0,19.22 15.58,34.8 34.81,34.8 h 370.11 c 6.84,0 12.39,-5.55 12.39,-12.39 v -49.82 c 0,-6.84 -5.55,-12.39 -12.39,-12.39"
         style="fill:#ddd7e0;fill-opacity:1;fill-rule:nonzero;stroke:none"
         id="path262" /><path
         d="m 4450.69,3129.41 h -370.11 c -19.22,0 -34.81,15.58 -34.81,34.8 v 5 c 0,19.22 15.59,34.8 34.81,34.8 h 370.11 c 6.85,0 12.4,-5.54 12.4,-12.38 v -49.83 c 0,-6.84 -5.55,-12.39 -12.4,-12.39"
         style="fill:#bbafc0;fill-opacity:1;fill-rule:nonzero;stroke:none"
         id="path264" /><path
         d="m 4463.09,3143.82 h -376.65 c -13.08,0 -23.69,10.6 -23.69,23.68 0,13.08 10.61,23.68 23.69,23.68 h 376.65 v -47.36"
         style="fill:#eeecf1;fill-opacity:1;fill-rule:nonzero;stroke:none"
         id="path266" /><path
         d="m 3971.76,3203.42 h 416.34 c 20.59,0 37.29,16.7 37.29,37.3 0,20.6 -16.7,37.3 -37.29,37.3 h -416.34 c -0.54,0 -0.98,-0.44 -0.98,-0.98 v -72.65 c 0,-0.54 0.44,-0.97 0.98,-0.97"
         style="fill:#ddd7e0;fill-opacity:1;fill-rule:nonzero;stroke:none"
         id="path268" /><path
         d="m 3961.93,3203.42 h 321.87 c 20.6,0 37.3,16.7 37.3,37.3 0,20.6 -16.7,37.3 -37.3,37.3 h -321.87 c -6.44,0 -11.68,-5.23 -11.68,-11.68 v -51.25 c 0,-6.44 5.24,-11.67 11.68,-11.67"
         style="fill:#bbafc0;fill-opacity:1;fill-rule:nonzero;stroke:none"
         id="path270" /><path
         d="m 3950.25,3217.82 h 332.07 c 13.09,0 23.69,10.61 23.69,23.69 0,13.08 -10.6,23.68 -23.69,23.68 h -332.07 v -47.37"
         style="fill:#eeecf1;fill-opacity:1;fill-rule:nonzero;stroke:none"
         id="path272" /><path
         d="m 4005.85,3277.43 h 334.58 c 20.6,0 37.3,16.7 37.3,37.3 0,20.59 -16.7,37.3 -37.3,37.3 h -334.58 c -2.35,0 -4.26,-1.91 -4.26,-4.26 v -66.09 c 0,-2.35 1.91,-4.25 4.26,-4.25"
         style="fill:#ddd7e0;fill-opacity:1;fill-rule:nonzero;stroke:none"
         id="path274" /><path
         d="m 3995.22,3277.43 h 258.92 c 20.61,0 37.3,16.7 37.3,37.3 0,20.59 -16.69,37.3 -37.3,37.3 h -258.92 c -5.86,0 -10.61,-4.76 -10.61,-10.63 v -53.35 c 0,-5.87 4.75,-10.62 10.61,-10.62"
         style="fill:#bbafc0;fill-opacity:1;fill-rule:nonzero;stroke:none"
         id="path276" /><path
         d="m 3984.61,3291.83 h 270.66 c 13.08,0 23.68,10.61 23.68,23.68 0,13.08 -10.6,23.69 -23.68,23.69 h -270.66 v -47.37"
         style="fill:#eeecf1;fill-opacity:1;fill-rule:nonzero;stroke:none"
         id="path278" /><path
         d="M 4904.87,3071.13 H 3396.24 c -17.96,0 -32.51,14.56 -32.51,32.51 0,17.96 14.55,32.52 32.51,32.52 h 1508.63 c 17.96,0 32.51,-14.56 32.51,-32.52 0,-17.95 -14.55,-32.51 -32.51,-32.51"
         style="fill:#bbafc0;fill-opacity:1;fill-rule:nonzero;stroke:none"
         id="path280" /><path
         d="M 738.258,1560.08 H 66.957 C 29.9805,1560.08 0,1590.06 0,1627.04 0,1664.02 29.9805,1694 66.957,1694 h 671.301 c 36.976,0 66.957,-29.98 66.957,-66.96 0,-36.98 -29.981,-66.96 -66.957,-66.96"
         style="fill:#ddd7e0;fill-opacity:1;fill-rule:nonzero;stroke:none"
         id="path282" /><path
         d="m 154.07,741.02 c -20.136,0 -36.457,16.32 -36.457,36.46 v 804.32 c 0,20.13 16.321,36.46 36.457,36.46 20.133,0 36.457,-16.33 36.457,-36.46 V 777.48 c 0,-20.14 -16.324,-36.46 -36.457,-36.46"
         style="fill:#ddd7e0;fill-opacity:1;fill-rule:nonzero;stroke:none"
         id="path284" /><path
         d="m 658.328,741.02 c -20.129,0 -36.453,16.32 -36.453,36.46 v 804.32 c 0,20.13 16.324,36.46 36.453,36.46 20.137,0 36.457,-16.33 36.457,-36.46 V 777.48 c 0,-20.14 -16.32,-36.46 -36.457,-36.46"
         style="fill:#ddd7e0;fill-opacity:1;fill-rule:nonzero;stroke:none"
         id="path286" /><path
         d="M 616.602,1694 H 447.133 v 221.58 H 616.602 V 1694"
         style="fill:#bbafc0;fill-opacity:1;fill-rule:nonzero;stroke:none"
         id="path288" /><path
         d="m 616.602,1915.58 c 0,-5.37 -37.934,-9.73 -84.739,-9.73 -46.797,0 -84.73,4.36 -84.73,9.73 0,5.38 37.933,9.74 84.73,9.74 46.805,0 84.739,-4.36 84.739,-9.74"
         style="fill:#ddd7e0;fill-opacity:1;fill-rule:nonzero;stroke:none"
         id="path290" /><path
         d="m 616.609,1859.86 c -26.664,0 -48.371,-29.99 -48.371,-66.85 0,-36.86 21.707,-66.85 48.371,-66.85 26.668,0 48.356,29.99 48.356,66.85 0,36.86 -21.688,66.85 -48.356,66.85 z m 0,-148.67 c -34.929,0 -63.347,36.7 -63.347,81.82 0,45.13 28.418,81.83 63.347,81.83 34.93,0 63.336,-36.7 63.336,-81.83 0,-45.12 -28.406,-81.82 -63.336,-81.82"
         style="fill:#bbafc0;fill-opacity:1;fill-rule:nonzero;stroke:none"
         id="path292" /><path
         d="m 3572.28,73.1992 c 0,-33.7304 -444.66,-61.0898 -993.19,-61.0898 -548.53,0 -993.21,27.3594 -993.21,61.0898 0,33.7418 444.68,61.0818 993.21,61.0818 548.53,0 993.19,-27.34 993.19,-61.0818"
         style="fill:#eeecf1;fill-opacity:1;fill-rule:nonzero;stroke:none"
         id="path294" /><path
         d="m 2572.77,563.441 h -105.13 c -2.53,0 -4.57,2.039 -4.57,4.571 0,2.527 2.04,4.566 4.57,4.566 h 105.13 c 2.53,0 4.57,-2.039 4.57,-4.566 0,-2.532 -2.04,-4.571 -4.57,-4.571"
         style="fill:#f7b369;fill-opacity:1;fill-rule:nonzero;stroke:none"
         id="path296" /><path
         d="m 1715.29,1045.73 c -16.38,0 -32.88,-9.4 -45.68,-26.5 -17.1,-22.648 -25.43,-60.57 -21.17,-95.46 17.88,0.332 36.61,6.242 55.77,17.609 35.64,21.25 54.08,47.32 50.56,71.511 -2.21,15.23 -13.58,27.6 -28.98,31.52 -3.47,0.89 -6.98,1.32 -10.5,1.32 z m 41.68,-225.371 c -28.19,0 -52.06,6.602 -71.34,19.782 -29.74,20.339 -41,51.121 -45.1,74.668 -75.34,4.5 -115.2,94.271 -116.89,98.141 -1,2.32 0.06,5.01 2.38,6.02 2.31,1.03 5,-0.06 6.01,-2.36 0.39,-0.89 38.59,-86.829 107.17,-92.528 -4.12,36.719 4.91,76.548 23.1,100.648 17.84,23.81 42.43,34.48 65.74,28.55 19,-4.84 33.04,-20.18 35.78,-39.08 4.07,-28.028 -15.95,-57.438 -54.93,-80.68 -20.13,-11.938 -39.96,-18.27 -59.05,-18.86 4.04,-21.519 14.52,-48.89 40.96,-66.969 28.03,-19.179 67.16,-23.191 116.28,-12.019 4.03,0.906 8.19,1.918 12.35,3.066 2.44,0.684 4.96,-0.769 5.62,-3.199 0.67,-2.43 -0.76,-4.949 -3.2,-5.609 -4.3,-1.18 -8.6,-2.239 -12.75,-3.18 -18.73,-4.262 -36.13,-6.391 -52.13,-6.391"
         style="fill:#000000;fill-opacity:1;fill-rule:nonzero;stroke:none"
         id="path298" /><path
         d="m 3210.57,812.25 c -23.24,141.289 -54.32,261.93 -73.35,269.66 -7.39,3.04 -15.17,5.86 -23.23,8.46 -39.38,13.16 -81.92,21.84 -81.92,21.84 0,0 -114.99,114.54 -122.89,104.82 -7.76,-9.73 1.44,-101.07 1.44,-101.07 0,0 -132.17,117.58 -142.88,114.39 -10.71,-3.32 -23.88,-113.51 -23.88,-113.51 0,0 -182.89,16.23 -377.47,11.07 -83.74,-2.63 -169.49,-9.37 -243.65,-23.09 -247.06,-45.65 -289.9,-101.23 -303.09,-134.898 -5.41,-13.863 -11.89,-68.281 -11.55,-138.703 0.45,-101.289 14.99,-235.617 66.96,-328.239 87.85,-156.789 211.61,-215.671 211.61,-215.671 0,0 -7.72,-41.887 -13.81,-83.938 -6.09,-42.031 -10.46,-84.332 -3.48,-84.91 13.84,-1.129 64.34,22.43 64.34,22.43 0,0 35.53,-75.9418 45.87,-76.7894 6.36,-0.5313 27,45.9494 42.03,82.2264 9.54,22.934 16.86,41.652 16.86,41.652 0,0 51.24,-21.039 127.98,-34.96 l -0.49,-1.7 c 13.09,-2.422 26.84,-4.519 41.12,-6.289 103.2,-12.679 143.03,4.617 143.03,4.617 0,0 -4.31,-20.199 -8.17,-43.957 -5.37,-32.1715 -10.05,-70.6793 -2.25,-73.3707 13.4,-4.582 61.43,25.9297 61.43,25.9297 0,0 57.43,-57.328125 67.78,-58.2382812 4.22,-0.3906248 10.2,30.0898812 15.54,66.2773812 7.77,52.0429 14.52,115.4609 14.52,115.4609 l 36.04,14.129 c 0,0 18.53,-34.41 38.31,-67.68 18.22,-30.867 37.53,-60.8279 44.13,-61.4177 13.83,-1.2305 35.01,80.3787 35.01,80.3787 0,0 64.11,-23.019 78.74,-13.898 8.5,5.269 -12.27,42.898 -31.47,73.976 -14.27,23.121 -27.73,42.641 -27.73,42.641 l 52,37.062 c 0,0 143.74,-12.761 236.77,29.571 24.19,10.91 44.71,25.648 58.62,45.136 19.22,27.043 24.44,95.622 20.91,180.301 -3.45,82.789 -14.96,180.731 -29.73,270.301"
         style="fill:#a06b89;fill-opacity:1;fill-rule:nonzero;stroke:none"
         id="path300" /><path
         d="m 2221.61,142.031 c -0.51,0 -1.02,0.078 -1.52,0.278 l -148.77,57.082 c -2.19,0.839 -3.29,3.3 -2.45,5.5 0.85,2.199 3.34,3.308 5.5,2.449 l 148.76,-57.078 c 2.2,-0.84 3.3,-3.301 2.46,-5.5 -0.66,-1.703 -2.27,-2.731 -3.98,-2.731"
         style="fill:#ffffff;fill-opacity:1;fill-rule:nonzero;stroke:none"
         id="path302" /><path
         d="m 3400.18,718.051 c 11.75,-213.852 -93.77,-393.52 -235.71,-401.34 -141.94,-7.801 -266.54,159.219 -278.31,373.07 -11.76,213.84 93.77,393.529 235.71,401.329 141.94,7.81 266.55,-159.219 278.31,-373.059"
         style="fill:#f7b369;fill-opacity:1;fill-rule:nonzero;stroke:none"
         id="path304" /><path
         d="m 3297.57,712.41 c 5.87,-106.762 -9.12,-194.398 -33.48,-195.73 -24.36,-1.34 -48.87,84.121 -54.74,190.871 -5.87,106.758 9.12,194.39 33.47,195.73 24.37,1.34 48.88,-84.109 54.75,-190.871"
         style="fill:#000000;fill-opacity:1;fill-rule:nonzero;stroke:none"
         id="path306" /><path
         d="m 3146.46,696.949 c 18.21,-105.347 13.47,-194.129 -10.57,-198.277 -24.04,-4.16 -58.29,77.887 -76.49,183.238 -18.2,105.36 -13.46,194.141 10.58,198.289 24.03,4.153 58.28,-77.89 76.48,-183.25"
         style="fill:#000000;fill-opacity:1;fill-rule:nonzero;stroke:none"
         id="path308" /><path
         d="m 2772.84,763.648 c -2.07,0 -3.94,1.411 -4.45,3.512 l -18.99,79.949 c -0.57,2.461 0.94,4.93 3.4,5.512 2.46,0.551 4.91,-0.949 5.51,-3.402 l 18.98,-79.949 c 0.58,-2.45 -0.93,-4.918 -3.39,-5.508 -0.36,-0.071 -0.72,-0.114 -1.06,-0.114"
         style="fill:#000000;fill-opacity:1;fill-rule:nonzero;stroke:none"
         id="path310" /><path
         d="m 2684.92,390.57 c -0.58,0 -1.18,0.11 -1.75,0.352 -2.33,0.969 -3.44,3.648 -2.47,5.969 l 36.53,88.07 c 0.95,2.34 3.68,3.437 5.96,2.469 2.34,-0.969 3.45,-3.649 2.47,-5.969 l -36.52,-88.07 c -0.72,-1.762 -2.43,-2.821 -4.22,-2.821"
         style="fill:#000000;fill-opacity:1;fill-rule:nonzero;stroke:none"
         id="path312" /><path
         d="m 2924.03,282.379 c -0.24,0 -0.48,0.019 -0.72,0.051 -1.68,0.269 -168.64,27.871 -224.32,154.91 -1.01,2.308 0.04,5.012 2.36,6.019 2.31,1.02 5.02,-0.027 6.02,-2.347 53.68,-122.512 215.73,-149.293 217.37,-149.543 2.49,-0.399 4.19,-2.731 3.8,-5.231 -0.36,-2.25 -2.3,-3.859 -4.51,-3.859"
         style="fill:#000000;fill-opacity:1;fill-rule:nonzero;stroke:none"
         id="path314" /><path
         d="m 2574.46,1060.07 c 0.1,-1.4 0,-2.8 -0.1,-4.1 -1.2,-13.2 -11.9,-24 -25.5,-24.6 l -48.5,-2.7 -64.2,-3.5 -111,-6.2 c -0.1,-0.2 -117.5,-7.4 -117.5,-7.4 l -64.1,-4 -19.8,-1.2 c -15,-0.9 -28,10.6 -28.9,25.6 -0.1,1.4 0,2.61 0.1,3.9 0.6,7.5 4.3,14.2 9.8,18.8 4.3,3.61 9.7,5.9 15.7,6.2 l 29.9,1.8 193.1,11.8 c 0.1,0.2 143.4,8.01 143.4,8.01 l 48.9,2.69 10,0.5 c 15,1.01 27.9,-10.6 28.7,-25.6"
         style="fill:#000000;fill-opacity:1;fill-rule:nonzero;stroke:none"
         id="path316" /><path
         d="m 2684.41,62.0195 c -0.37,0 -0.75,0.0508 -1.13,0.1524 l -142.57,39.3671 c -2.26,0.621 -3.59,2.973 -2.97,5.231 0.63,2.269 2.93,3.621 5.24,2.968 l 142.57,-39.3591 c 2.26,-0.6289 3.59,-2.9687 2.97,-5.2383 -0.52,-1.8789 -2.24,-3.1211 -4.11,-3.1211"
         style="fill:#ffffff;fill-opacity:1;fill-rule:nonzero;stroke:none"
         id="path318" /><path
         d="m 2773.26,123.941 c -1.41,0 -2.8,0.707 -3.61,2 -1.24,1.989 -0.64,4.618 1.36,5.868 l 126.42,79.062 c 2,1.219 4.63,0.629 5.87,-1.351 1.24,-2 0.63,-4.622 -1.36,-5.872 L 2775.52,124.59 c -0.71,-0.43 -1.49,-0.649 -2.26,-0.649"
         style="fill:#ffffff;fill-opacity:1;fill-rule:nonzero;stroke:none"
         id="path320" /><path
         d="m 2557.46,1186.07 c 0,-36 -7.7,-70.1 -21.7,-100.9 -9.2,-20.5 -21.1,-39.5 -35.4,-56.5 l -64.2,-3.5 -111,-6.2 c -0.1,-0.2 -117.5,-7.4 -117.5,-7.4 l -64.1,-4 c -14.9,14 -27.9,29.8 -38.8,47.1 -24.2,38 -38.2,83.1 -38.2,131.4 0,135.5 109.9,245.4 245.4,245.4 135.6,0 245.5,-109.9 245.5,-245.4"
         style="fill:#fca338;fill-opacity:1;fill-rule:nonzero;stroke:none"
         id="path322" /><path
         d="m 2515.36,1186.07 c 0,-37.79 -10.4,-73.19 -28.5,-103.59 -13,-22.21 -30.3,-41.7 -50.7,-57.31 l -111,-6.2 c -0.1,-0.2 -117.5,-7.4 -117.5,-7.4 -22.2,13.2 -41.7,30.7 -57.3,51.1 -26.1,34.2 -41.7,77 -41.7,123.4 0,112.3 91,203.3 203.3,203.3 112.3,0 203.4,-91 203.4,-203.3"
         style="fill:#ffb655;fill-opacity:1;fill-rule:nonzero;stroke:none"
         id="path324" /><path
         d="m 2153.96,1245.86 c -0.46,0 -0.93,0.06 -1.39,0.17 -3.17,0.77 -5.11,3.97 -4.34,7.13 0.64,2.64 16.53,64.99 84.45,90.97 3.02,1.15 6.44,-0.37 7.61,-3.4 1.16,-3.05 -0.36,-6.46 -3.4,-7.62 -62.2,-23.79 -77.06,-82.16 -77.2,-82.74 -0.66,-2.7 -3.07,-4.51 -5.73,-4.51"
         style="fill:#ffdd92;fill-opacity:1;fill-rule:nonzero;stroke:none"
         id="path326" /></g></g></svg>
